<?xml version="1.0" encoding="UTF-8" standalone="no"?>
<!DOCTYPE svg PUBLIC "-//W3C//DTD SVG 1.1//EN"
 "http://www.w3.org/Graphics/SVG/1.1/DTD/svg11.dtd">
<!-- Generated by graphviz version 2.36.0 (20140111.2315)
 -->
<!-- Title: controllers_diagram Pages: 1 -->
<svg width="1103pt" height="1069pt"
 viewBox="0.00 0.00 1103.00 1069.00" xmlns="http://www.w3.org/2000/svg" xmlns:xlink="http://www.w3.org/1999/xlink">
<g id="graph0" class="graph" transform="scale(1 1) rotate(0) translate(4 1065)">
<title>controllers_diagram</title>
<polygon fill="none" stroke="none" points="-4,4 -4,-1065 1099,-1065 1099,4 -4,4"/>
<!-- _diagram_info -->
<g id="node1" class="node"><title>_diagram_info</title>
<text text-anchor="start" x="824" y="-437.6" font-family="Times,serif" font-size="13.00">Controllers diagram</text>
<text text-anchor="start" x="824" y="-423.6" font-family="Times,serif" font-size="13.00">Date: Jun 01 2018 &#45; 17:25</text>
<text text-anchor="start" x="824" y="-409.6" font-family="Times,serif" font-size="13.00">Migration version: 20180424135528</text>
<text text-anchor="start" x="824" y="-395.6" font-family="Times,serif" font-size="13.00">Generated by RailRoady 1.5.3</text>
<text text-anchor="start" x="824" y="-381.6" font-family="Times,serif" font-size="13.00">http://railroady.prestonlee.com</text>
</g>
<!-- Admin::SiteSettingsController -->
<g id="node2" class="node"><title>Admin::SiteSettingsController</title>
<path fill="none" stroke="black" d="M165,-425.5C165,-425.5 323,-425.5 323,-425.5 329,-425.5 335,-431.5 335,-437.5 335,-437.5 335,-521.5 335,-521.5 335,-527.5 329,-533.5 323,-533.5 323,-533.5 165,-533.5 165,-533.5 159,-533.5 153,-527.5 153,-521.5 153,-521.5 153,-437.5 153,-437.5 153,-431.5 159,-425.5 165,-425.5"/>
<text text-anchor="middle" x="244" y="-518.3" font-family="Times,serif" font-size="14.00">Admin::SiteSettingsController</text>
<polyline fill="none" stroke="black" points="153,-510.5 335,-510.5 "/>
<text text-anchor="start" x="161" y="-495.3" font-family="Times,serif" font-size="14.00">index</text>
<text text-anchor="start" x="161" y="-480.3" font-family="Times,serif" font-size="14.00">update</text>
<polyline fill="none" stroke="black" points="153,-472.5 335,-472.5 "/>
<polyline fill="none" stroke="black" points="153,-448.5 335,-448.5 "/>
<text text-anchor="start" x="161" y="-433.3" font-family="Times,serif" font-size="14.00">_layout</text>
</g>
<!-- Admin::SlideDownloadController -->
<g id="node3" class="node"><title>Admin::SlideDownloadController</title>
<path fill="none" stroke="black" d="M233,-238.5C233,-238.5 411,-238.5 411,-238.5 417,-238.5 423,-244.5 423,-250.5 423,-250.5 423,-334.5 423,-334.5 423,-340.5 417,-346.5 411,-346.5 411,-346.5 233,-346.5 233,-346.5 227,-346.5 221,-340.5 221,-334.5 221,-334.5 221,-250.5 221,-250.5 221,-244.5 227,-238.5 233,-238.5"/>
<text text-anchor="middle" x="322" y="-331.3" font-family="Times,serif" font-size="14.00">Admin::SlideDownloadController</text>
<polyline fill="none" stroke="black" points="221,-323.5 423,-323.5 "/>
<text text-anchor="start" x="229" y="-308.3" font-family="Times,serif" font-size="14.00">show</text>
<polyline fill="none" stroke="black" points="221,-300.5 423,-300.5 "/>
<polyline fill="none" stroke="black" points="221,-276.5 423,-276.5 "/>
<text text-anchor="start" x="229" y="-261.3" font-family="Times,serif" font-size="14.00">_layout</text>
<text text-anchor="start" x="229" y="-246.3" font-family="Times,serif" font-size="14.00">set_slide</text>
</g>
<!-- Admin::SlideReconvertController -->
<g id="node4" class="node"><title>Admin::SlideReconvertController</title>
<path fill="none" stroke="black" d="M760,-765.5C760,-765.5 937,-765.5 937,-765.5 943,-765.5 949,-771.5 949,-777.5 949,-777.5 949,-861.5 949,-861.5 949,-867.5 943,-873.5 937,-873.5 937,-873.5 760,-873.5 760,-873.5 754,-873.5 748,-867.5 748,-861.5 748,-861.5 748,-777.5 748,-777.5 748,-771.5 754,-765.5 760,-765.5"/>
<text text-anchor="middle" x="848.5" y="-858.3" font-family="Times,serif" font-size="14.00">Admin::SlideReconvertController</text>
<polyline fill="none" stroke="black" points="748,-850.5 949,-850.5 "/>
<text text-anchor="start" x="756" y="-835.3" font-family="Times,serif" font-size="14.00">show</text>
<polyline fill="none" stroke="black" points="748,-827.5 949,-827.5 "/>
<polyline fill="none" stroke="black" points="748,-803.5 949,-803.5 "/>
<text text-anchor="start" x="756" y="-788.3" font-family="Times,serif" font-size="14.00">_layout</text>
<text text-anchor="start" x="756" y="-773.3" font-family="Times,serif" font-size="14.00">set_slide</text>
</g>
<!-- Admin::SlidesController -->
<g id="node5" class="node"><title>Admin::SlidesController</title>
<path fill="none" stroke="black" d="M573,-867.5C573,-867.5 700,-867.5 700,-867.5 706,-867.5 712,-873.5 712,-879.5 712,-879.5 712,-993.5 712,-993.5 712,-999.5 706,-1005.5 700,-1005.5 700,-1005.5 573,-1005.5 573,-1005.5 567,-1005.5 561,-999.5 561,-993.5 561,-993.5 561,-879.5 561,-879.5 561,-873.5 567,-867.5 573,-867.5"/>
<text text-anchor="middle" x="636.5" y="-990.3" font-family="Times,serif" font-size="14.00">Admin::SlidesController</text>
<polyline fill="none" stroke="black" points="561,-982.5 712,-982.5 "/>
<text text-anchor="start" x="569" y="-967.3" font-family="Times,serif" font-size="14.00">edit</text>
<text text-anchor="start" x="569" y="-952.3" font-family="Times,serif" font-size="14.00">index</text>
<text text-anchor="start" x="569" y="-937.3" font-family="Times,serif" font-size="14.00">update</text>
<polyline fill="none" stroke="black" points="561,-929.5 712,-929.5 "/>
<polyline fill="none" stroke="black" points="561,-905.5 712,-905.5 "/>
<text text-anchor="start" x="569" y="-890.3" font-family="Times,serif" font-size="14.00">_layout</text>
<text text-anchor="start" x="569" y="-875.3" font-family="Times,serif" font-size="14.00">set_slide</text>
</g>
<!-- Admin::PagesController -->
<g id="node6" class="node"><title>Admin::PagesController</title>
<path fill="none" stroke="black" d="M420,-629.5C420,-629.5 545,-629.5 545,-629.5 551,-629.5 557,-635.5 557,-641.5 557,-641.5 557,-815.5 557,-815.5 557,-821.5 551,-827.5 545,-827.5 545,-827.5 420,-827.5 420,-827.5 414,-827.5 408,-821.5 408,-815.5 408,-815.5 408,-641.5 408,-641.5 408,-635.5 414,-629.5 420,-629.5"/>
<text text-anchor="middle" x="482.5" y="-812.3" font-family="Times,serif" font-size="14.00">Admin::PagesController</text>
<polyline fill="none" stroke="black" points="408,-804.5 557,-804.5 "/>
<text text-anchor="start" x="416" y="-789.3" font-family="Times,serif" font-size="14.00">create</text>
<text text-anchor="start" x="416" y="-774.3" font-family="Times,serif" font-size="14.00">destroy</text>
<text text-anchor="start" x="416" y="-759.3" font-family="Times,serif" font-size="14.00">edit</text>
<text text-anchor="start" x="416" y="-744.3" font-family="Times,serif" font-size="14.00">index</text>
<text text-anchor="start" x="416" y="-729.3" font-family="Times,serif" font-size="14.00">new</text>
<text text-anchor="start" x="416" y="-714.3" font-family="Times,serif" font-size="14.00">update</text>
<polyline fill="none" stroke="black" points="408,-706.5 557,-706.5 "/>
<polyline fill="none" stroke="black" points="408,-682.5 557,-682.5 "/>
<text text-anchor="start" x="416" y="-667.3" font-family="Times,serif" font-size="14.00">_layout</text>
<text text-anchor="start" x="416" y="-652.3" font-family="Times,serif" font-size="14.00">page_params</text>
<text text-anchor="start" x="416" y="-637.3" font-family="Times,serif" font-size="14.00">set_page</text>
</g>
<!-- Admin::UsersController -->
<g id="node7" class="node"><title>Admin::UsersController</title>
<path fill="none" stroke="black" d="M233,-748.5C233,-748.5 358,-748.5 358,-748.5 364,-748.5 370,-754.5 370,-760.5 370,-760.5 370,-904.5 370,-904.5 370,-910.5 364,-916.5 358,-916.5 358,-916.5 233,-916.5 233,-916.5 227,-916.5 221,-910.5 221,-904.5 221,-904.5 221,-760.5 221,-760.5 221,-754.5 227,-748.5 233,-748.5"/>
<text text-anchor="middle" x="295.5" y="-901.3" font-family="Times,serif" font-size="14.00">Admin::UsersController</text>
<polyline fill="none" stroke="black" points="221,-893.5 370,-893.5 "/>
<text text-anchor="start" x="229" y="-878.3" font-family="Times,serif" font-size="14.00">destroy</text>
<text text-anchor="start" x="229" y="-863.3" font-family="Times,serif" font-size="14.00">edit</text>
<text text-anchor="start" x="229" y="-848.3" font-family="Times,serif" font-size="14.00">index</text>
<text text-anchor="start" x="229" y="-833.3" font-family="Times,serif" font-size="14.00">update</text>
<polyline fill="none" stroke="black" points="221,-825.5 370,-825.5 "/>
<polyline fill="none" stroke="black" points="221,-801.5 370,-801.5 "/>
<text text-anchor="start" x="229" y="-786.3" font-family="Times,serif" font-size="14.00">_layout</text>
<text text-anchor="start" x="229" y="-771.3" font-family="Times,serif" font-size="14.00">set_user</text>
<text text-anchor="start" x="229" y="-756.3" font-family="Times,serif" font-size="14.00">user_params</text>
</g>
<!-- Admin::CustomContentsController -->
<g id="node8" class="node"><title>Admin::CustomContentsController</title>
<path fill="none" stroke="black" d="M488,-238.5C488,-238.5 673,-238.5 673,-238.5 679,-238.5 685,-244.5 685,-250.5 685,-250.5 685,-334.5 685,-334.5 685,-340.5 679,-346.5 673,-346.5 673,-346.5 488,-346.5 488,-346.5 482,-346.5 476,-340.5 476,-334.5 476,-334.5 476,-250.5 476,-250.5 476,-244.5 482,-238.5 488,-238.5"/>
<text text-anchor="middle" x="580.5" y="-331.3" font-family="Times,serif" font-size="14.00">Admin::CustomContentsController</text>
<polyline fill="none" stroke="black" points="476,-323.5 685,-323.5 "/>
<text text-anchor="start" x="484" y="-308.3" font-family="Times,serif" font-size="14.00">index</text>
<text text-anchor="start" x="484" y="-293.3" font-family="Times,serif" font-size="14.00">update</text>
<polyline fill="none" stroke="black" points="476,-285.5 685,-285.5 "/>
<polyline fill="none" stroke="black" points="476,-261.5 685,-261.5 "/>
<text text-anchor="start" x="484" y="-246.3" font-family="Times,serif" font-size="14.00">_layout</text>
</g>
<!-- Admin::LogsController -->
<g id="node9" class="node"><title>Admin::LogsController</title>
<path fill="none" stroke="black" d="M896,-901.5C896,-901.5 1017,-901.5 1017,-901.5 1023,-901.5 1029,-907.5 1029,-913.5 1029,-913.5 1029,-1027.5 1029,-1027.5 1029,-1033.5 1023,-1039.5 1017,-1039.5 1017,-1039.5 896,-1039.5 896,-1039.5 890,-1039.5 884,-1033.5 884,-1027.5 884,-1027.5 884,-913.5 884,-913.5 884,-907.5 890,-901.5 896,-901.5"/>
<text text-anchor="middle" x="956.5" y="-1024.3" font-family="Times,serif" font-size="14.00">Admin::LogsController</text>
<polyline fill="none" stroke="black" points="884,-1016.5 1029,-1016.5 "/>
<text text-anchor="start" x="892" y="-1001.3" font-family="Times,serif" font-size="14.00">download</text>
<text text-anchor="start" x="892" y="-986.3" font-family="Times,serif" font-size="14.00">index</text>
<text text-anchor="start" x="892" y="-971.3" font-family="Times,serif" font-size="14.00">show</text>
<polyline fill="none" stroke="black" points="884,-963.5 1029,-963.5 "/>
<polyline fill="none" stroke="black" points="884,-939.5 1029,-939.5 "/>
<text text-anchor="start" x="892" y="-924.3" font-family="Times,serif" font-size="14.00">_layout</text>
<text text-anchor="start" x="892" y="-909.3" font-family="Times,serif" font-size="14.00">retrieve</text>
</g>
<!-- Admin::CustomFilesController -->
<g id="node10" class="node"><title>Admin::CustomFilesController</title>
<path fill="none" stroke="black" d="M386,-374.5C386,-374.5 549,-374.5 549,-374.5 555,-374.5 561,-380.5 561,-386.5 561,-386.5 561,-575.5 561,-575.5 561,-581.5 555,-587.5 549,-587.5 549,-587.5 386,-587.5 386,-587.5 380,-587.5 374,-581.5 374,-575.5 374,-575.5 374,-386.5 374,-386.5 374,-380.5 380,-374.5 386,-374.5"/>
<text text-anchor="middle" x="467.5" y="-572.3" font-family="Times,serif" font-size="14.00">Admin::CustomFilesController</text>
<polyline fill="none" stroke="black" points="374,-564.5 561,-564.5 "/>
<text text-anchor="start" x="382" y="-549.3" font-family="Times,serif" font-size="14.00">create</text>
<text text-anchor="start" x="382" y="-534.3" font-family="Times,serif" font-size="14.00">destroy</text>
<text text-anchor="start" x="382" y="-519.3" font-family="Times,serif" font-size="14.00">index</text>
<text text-anchor="start" x="382" y="-504.3" font-family="Times,serif" font-size="14.00">new</text>
<polyline fill="none" stroke="black" points="374,-496.5 561,-496.5 "/>
<polyline fill="none" stroke="black" points="374,-472.5 561,-472.5 "/>
<text text-anchor="start" x="382" y="-457.3" font-family="Times,serif" font-size="14.00">_layout</text>
<text text-anchor="start" x="382" y="-442.3" font-family="Times,serif" font-size="14.00">attached_check</text>
<text text-anchor="start" x="382" y="-427.3" font-family="Times,serif" font-size="14.00">custom_file_params</text>
<text text-anchor="start" x="382" y="-412.3" font-family="Times,serif" font-size="14.00">delete_tmp_file</text>
<text text-anchor="start" x="382" y="-397.3" font-family="Times,serif" font-size="14.00">save_tmp_file</text>
<text text-anchor="start" x="382" y="-382.3" font-family="Times,serif" font-size="14.00">set_custom_file</text>
</g>
<!-- Admin::BaseController -->
<g id="node11" class="node"><title>Admin::BaseController</title>
<path fill="none" stroke="black" d="M284,-102.5C284,-102.5 404,-102.5 404,-102.5 410,-102.5 416,-108.5 416,-114.5 416,-114.5 416,-199.5 416,-199.5 416,-205.5 410,-211.5 404,-211.5 404,-211.5 284,-211.5 284,-211.5 278,-211.5 272,-205.5 272,-199.5 272,-199.5 272,-114.5 272,-114.5 272,-108.5 278,-102.5 284,-102.5"/>
<text text-anchor="middle" x="344" y="-196.3" font-family="Times,serif" font-size="14.00">Admin::BaseController</text>
<polyline fill="none" stroke="black" points="272,-188.5 416,-188.5 "/>
<polyline fill="none" stroke="black" points="272,-164.5 416,-164.5 "/>
<polyline fill="none" stroke="black" points="272,-140.5 416,-140.5 "/>
<text text-anchor="start" x="280" y="-125.3" font-family="Times,serif" font-size="14.00">_layout</text>
<text text-anchor="start" x="280" y="-110.3" font-family="Times,serif" font-size="14.00">admin?</text>
</g>
<!-- Admin::FeaturedSlidesController -->
<g id="node12" class="node"><title>Admin::FeaturedSlidesController</title>
<path fill="none" stroke="black" d="M760,-595.5C760,-595.5 934,-595.5 934,-595.5 940,-595.5 946,-601.5 946,-607.5 946,-607.5 946,-721.5 946,-721.5 946,-727.5 940,-733.5 934,-733.5 934,-733.5 760,-733.5 760,-733.5 754,-733.5 748,-727.5 748,-721.5 748,-721.5 748,-607.5 748,-607.5 748,-601.5 754,-595.5 760,-595.5"/>
<text text-anchor="middle" x="847" y="-718.3" font-family="Times,serif" font-size="14.00">Admin::FeaturedSlidesController</text>
<polyline fill="none" stroke="black" points="748,-710.5 946,-710.5 "/>
<text text-anchor="start" x="756" y="-695.3" font-family="Times,serif" font-size="14.00">create</text>
<text text-anchor="start" x="756" y="-680.3" font-family="Times,serif" font-size="14.00">destroy</text>
<text text-anchor="start" x="756" y="-665.3" font-family="Times,serif" font-size="14.00">index</text>
<text text-anchor="start" x="756" y="-650.3" font-family="Times,serif" font-size="14.00">new</text>
<polyline fill="none" stroke="black" points="748,-642.5 946,-642.5 "/>
<polyline fill="none" stroke="black" points="748,-618.5 946,-618.5 "/>
<text text-anchor="start" x="756" y="-603.3" font-family="Times,serif" font-size="14.00">_layout</text>
</g>
<!-- Admin::DashboardsController -->
<g id="node13" class="node"><title>Admin::DashboardsController</title>
<path fill="none" stroke="black" d="M675,-119.5C675,-119.5 833,-119.5 833,-119.5 839,-119.5 845,-125.5 845,-131.5 845,-131.5 845,-200.5 845,-200.5 845,-206.5 839,-212.5 833,-212.5 833,-212.5 675,-212.5 675,-212.5 669,-212.5 663,-206.5 663,-200.5 663,-200.5 663,-131.5 663,-131.5 663,-125.5 669,-119.5 675,-119.5"/>
<text text-anchor="middle" x="754" y="-197.3" font-family="Times,serif" font-size="14.00">Admin::DashboardsController</text>
<polyline fill="none" stroke="black" points="663,-189.5 845,-189.5 "/>
<text text-anchor="start" x="671" y="-174.3" font-family="Times,serif" font-size="14.00">show</text>
<polyline fill="none" stroke="black" points="663,-166.5 845,-166.5 "/>
<polyline fill="none" stroke="black" points="663,-142.5 845,-142.5 "/>
<text text-anchor="start" x="671" y="-127.3" font-family="Times,serif" font-size="14.00">_layout</text>
</g>
<!-- PopularController -->
<g id="node14" class="node"><title>PopularController</title>
<path fill="none" stroke="black" d="M12,-442.5C12,-442.5 102,-442.5 102,-442.5 108,-442.5 114,-448.5 114,-454.5 114,-454.5 114,-523.5 114,-523.5 114,-529.5 108,-535.5 102,-535.5 102,-535.5 12,-535.5 12,-535.5 6,-535.5 -5.68434e-14,-529.5 -5.68434e-14,-523.5 -5.68434e-14,-523.5 -5.68434e-14,-454.5 -5.68434e-14,-454.5 -5.68434e-14,-448.5 6,-442.5 12,-442.5"/>
<text text-anchor="middle" x="57" y="-520.3" font-family="Times,serif" font-size="14.00">PopularController</text>
<polyline fill="none" stroke="black" points="-5.68434e-14,-512.5 114,-512.5 "/>
<text text-anchor="start" x="8" y="-497.3" font-family="Times,serif" font-size="14.00">index</text>
<polyline fill="none" stroke="black" points="-5.68434e-14,-489.5 114,-489.5 "/>
<polyline fill="none" stroke="black" points="-5.68434e-14,-465.5 114,-465.5 "/>
<text text-anchor="start" x="8" y="-450.3" font-family="Times,serif" font-size="14.00">_layout</text>
</g>
<!-- SlideDownloadController -->
<g id="node15" class="node"><title>SlideDownloadController</title>
<path fill="none" stroke="black" d="M97,-102.5C97,-102.5 229,-102.5 229,-102.5 235,-102.5 241,-108.5 241,-114.5 241,-114.5 241,-198.5 241,-198.5 241,-204.5 235,-210.5 229,-210.5 229,-210.5 97,-210.5 97,-210.5 91,-210.5 85,-204.5 85,-198.5 85,-198.5 85,-114.5 85,-114.5 85,-108.5 91,-102.5 97,-102.5"/>
<text text-anchor="middle" x="163" y="-195.3" font-family="Times,serif" font-size="14.00">SlideDownloadController</text>
<polyline fill="none" stroke="black" points="85,-187.5 241,-187.5 "/>
<text text-anchor="start" x="93" y="-172.3" font-family="Times,serif" font-size="14.00">show</text>
<polyline fill="none" stroke="black" points="85,-164.5 241,-164.5 "/>
<polyline fill="none" stroke="black" points="85,-140.5 241,-140.5 "/>
<text text-anchor="start" x="93" y="-125.3" font-family="Times,serif" font-size="14.00">_layout</text>
<text text-anchor="start" x="93" y="-110.3" font-family="Times,serif" font-size="14.00">downloadable?</text>
</g>
<!-- Custom::CssController -->
<g id="node16" class="node"><title>Custom::CssController</title>
<path fill="none" stroke="black" d="M403,-952.5C403,-952.5 521,-952.5 521,-952.5 527,-952.5 533,-958.5 533,-964.5 533,-964.5 533,-1033.5 533,-1033.5 533,-1039.5 527,-1045.5 521,-1045.5 521,-1045.5 403,-1045.5 403,-1045.5 397,-1045.5 391,-1039.5 391,-1033.5 391,-1033.5 391,-964.5 391,-964.5 391,-958.5 397,-952.5 403,-952.5"/>
<text text-anchor="middle" x="462" y="-1030.3" font-family="Times,serif" font-size="14.00">Custom::CssController</text>
<polyline fill="none" stroke="black" points="391,-1022.5 533,-1022.5 "/>
<text text-anchor="start" x="399" y="-1007.3" font-family="Times,serif" font-size="14.00">show</text>
<polyline fill="none" stroke="black" points="391,-999.5 533,-999.5 "/>
<polyline fill="none" stroke="black" points="391,-975.5 533,-975.5 "/>
<text text-anchor="start" x="399" y="-960.3" font-family="Times,serif" font-size="14.00">_layout</text>
</g>
<!-- SlidesController -->
<g id="node17" class="node"><title>SlidesController</title>
<path fill="none" stroke="black" d="M607,-595.5C607,-595.5 696,-595.5 696,-595.5 702,-595.5 708,-601.5 708,-607.5 708,-607.5 708,-826.5 708,-826.5 708,-832.5 702,-838.5 696,-838.5 696,-838.5 607,-838.5 607,-838.5 601,-838.5 595,-832.5 595,-826.5 595,-826.5 595,-607.5 595,-607.5 595,-601.5 601,-595.5 607,-595.5"/>
<text text-anchor="middle" x="651.5" y="-823.3" font-family="Times,serif" font-size="14.00">SlidesController</text>
<polyline fill="none" stroke="black" points="595,-815.5 708,-815.5 "/>
<text text-anchor="start" x="603" y="-800.3" font-family="Times,serif" font-size="14.00">create</text>
<text text-anchor="start" x="603" y="-785.3" font-family="Times,serif" font-size="14.00">destroy</text>
<text text-anchor="start" x="603" y="-770.3" font-family="Times,serif" font-size="14.00">edit</text>
<text text-anchor="start" x="603" y="-755.3" font-family="Times,serif" font-size="14.00">index</text>
<text text-anchor="start" x="603" y="-740.3" font-family="Times,serif" font-size="14.00">new</text>
<text text-anchor="start" x="603" y="-725.3" font-family="Times,serif" font-size="14.00">show</text>
<text text-anchor="start" x="603" y="-710.3" font-family="Times,serif" font-size="14.00">update</text>
<polyline fill="none" stroke="black" points="595,-702.5 708,-702.5 "/>
<polyline fill="none" stroke="black" points="595,-678.5 708,-678.5 "/>
<text text-anchor="start" x="603" y="-663.3" font-family="Times,serif" font-size="14.00">_layout</text>
<text text-anchor="start" x="603" y="-648.3" font-family="Times,serif" font-size="14.00">duplicate_key?</text>
<text text-anchor="start" x="603" y="-633.3" font-family="Times,serif" font-size="14.00">owner?</text>
<text text-anchor="start" x="603" y="-618.3" font-family="Times,serif" font-size="14.00">set_related_slides</text>
<text text-anchor="start" x="603" y="-603.3" font-family="Times,serif" font-size="14.00">uploadable?</text>
</g>
<!-- ApplicationController -->
<g id="node18" class="node"><title>ApplicationController</title>
<path fill="none" stroke="black" d="M607,-374.5C607,-374.5 777,-374.5 777,-374.5 783,-374.5 789,-380.5 789,-386.5 789,-386.5 789,-546.5 789,-546.5 789,-552.5 783,-558.5 777,-558.5 777,-558.5 607,-558.5 607,-558.5 601,-558.5 595,-552.5 595,-546.5 595,-546.5 595,-386.5 595,-386.5 595,-380.5 601,-374.5 607,-374.5"/>
<text text-anchor="middle" x="692" y="-543.3" font-family="Times,serif" font-size="14.00">ApplicationController</text>
<polyline fill="none" stroke="black" points="595,-535.5 789,-535.5 "/>
<polyline fill="none" stroke="black" points="595,-511.5 789,-511.5 "/>
<polyline fill="none" stroke="black" points="595,-487.5 789,-487.5 "/>
<text text-anchor="start" x="603" y="-472.3" font-family="Times,serif" font-size="14.00">_layout</text>
<text text-anchor="start" x="603" y="-457.3" font-family="Times,serif" font-size="14.00">configure_permitted_parameters</text>
<text text-anchor="start" x="603" y="-442.3" font-family="Times,serif" font-size="14.00">locale_from_accept_language</text>
<text text-anchor="start" x="603" y="-427.3" font-family="Times,serif" font-size="14.00">set_category_data</text>
<text text-anchor="start" x="603" y="-412.3" font-family="Times,serif" font-size="14.00">set_locale</text>
<text text-anchor="start" x="603" y="-397.3" font-family="Times,serif" font-size="14.00">set_uploadable</text>
<text text-anchor="start" x="603" y="-382.3" font-family="Times,serif" font-size="14.00">signup_enabled?</text>
</g>
<!-- PagesController -->
<g id="node19" class="node"><title>PagesController</title>
<path fill="none" stroke="black" d="M981,-204.5C981,-204.5 1061,-204.5 1061,-204.5 1067,-204.5 1073,-210.5 1073,-216.5 1073,-216.5 1073,-285.5 1073,-285.5 1073,-291.5 1067,-297.5 1061,-297.5 1061,-297.5 981,-297.5 981,-297.5 975,-297.5 969,-291.5 969,-285.5 969,-285.5 969,-216.5 969,-216.5 969,-210.5 975,-204.5 981,-204.5"/>
<text text-anchor="middle" x="1021" y="-282.3" font-family="Times,serif" font-size="14.00">PagesController</text>
<polyline fill="none" stroke="black" points="969,-274.5 1073,-274.5 "/>
<text text-anchor="start" x="977" y="-259.3" font-family="Times,serif" font-size="14.00">show</text>
<polyline fill="none" stroke="black" points="969,-251.5 1073,-251.5 "/>
<polyline fill="none" stroke="black" points="969,-227.5 1073,-227.5 "/>
<text text-anchor="start" x="977" y="-212.3" font-family="Times,serif" font-size="14.00">_layout</text>
</g>
<!-- CommentsController -->
<g id="node20" class="node"><title>CommentsController</title>
<path fill="none" stroke="black" d="M233,-952.5C233,-952.5 341,-952.5 341,-952.5 347,-952.5 353,-958.5 353,-964.5 353,-964.5 353,-1048.5 353,-1048.5 353,-1054.5 347,-1060.5 341,-1060.5 341,-1060.5 233,-1060.5 233,-1060.5 227,-1060.5 221,-1054.5 221,-1048.5 221,-1048.5 221,-964.5 221,-964.5 221,-958.5 227,-952.5 233,-952.5"/>
<text text-anchor="middle" x="287" y="-1045.3" font-family="Times,serif" font-size="14.00">CommentsController</text>
<polyline fill="none" stroke="black" points="221,-1037.5 353,-1037.5 "/>
<text text-anchor="start" x="229" y="-1022.3" font-family="Times,serif" font-size="14.00">create</text>
<text text-anchor="start" x="229" y="-1007.3" font-family="Times,serif" font-size="14.00">destroy</text>
<polyline fill="none" stroke="black" points="221,-999.5 353,-999.5 "/>
<polyline fill="none" stroke="black" points="221,-975.5 353,-975.5 "/>
<text text-anchor="start" x="229" y="-960.3" font-family="Times,serif" font-size="14.00">_layout</text>
</g>
<!-- Api::V1::SlidesController -->
<g id="node21" class="node"><title>Api::V1::SlidesController</title>
<path fill="none" stroke="black" d="M488,-85.5C488,-85.5 621,-85.5 621,-85.5 627,-85.5 633,-91.5 633,-97.5 633,-97.5 633,-196.5 633,-196.5 633,-202.5 627,-208.5 621,-208.5 621,-208.5 488,-208.5 488,-208.5 482,-208.5 476,-202.5 476,-196.5 476,-196.5 476,-97.5 476,-97.5 476,-91.5 482,-85.5 488,-85.5"/>
<text text-anchor="middle" x="554.5" y="-193.3" font-family="Times,serif" font-size="14.00">Api::V1::SlidesController</text>
<polyline fill="none" stroke="black" points="476,-185.5 633,-185.5 "/>
<text text-anchor="start" x="484" y="-170.3" font-family="Times,serif" font-size="14.00">index</text>
<text text-anchor="start" x="484" y="-155.3" font-family="Times,serif" font-size="14.00">show</text>
<text text-anchor="start" x="484" y="-140.3" font-family="Times,serif" font-size="14.00">transcript</text>
<polyline fill="none" stroke="black" points="476,-132.5 633,-132.5 "/>
<polyline fill="none" stroke="black" points="476,-108.5 633,-108.5 "/>
<text text-anchor="start" x="484" y="-93.3" font-family="Times,serif" font-size="14.00">_layout</text>
</g>
<!-- Api::V1::UsersController -->
<g id="node22" class="node"><title>Api::V1::UsersController</title>
<path fill="none" stroke="black" d="M46,-935.5C46,-935.5 177,-935.5 177,-935.5 183,-935.5 189,-941.5 189,-947.5 189,-947.5 189,-1016.5 189,-1016.5 189,-1022.5 183,-1028.5 177,-1028.5 177,-1028.5 46,-1028.5 46,-1028.5 40,-1028.5 34,-1022.5 34,-1016.5 34,-1016.5 34,-947.5 34,-947.5 34,-941.5 40,-935.5 46,-935.5"/>
<text text-anchor="middle" x="111.5" y="-1013.3" font-family="Times,serif" font-size="14.00">Api::V1::UsersController</text>
<polyline fill="none" stroke="black" points="34,-1005.5 189,-1005.5 "/>
<text text-anchor="start" x="42" y="-990.3" font-family="Times,serif" font-size="14.00">show</text>
<polyline fill="none" stroke="black" points="34,-982.5 189,-982.5 "/>
<polyline fill="none" stroke="black" points="34,-958.5 189,-958.5 "/>
<text text-anchor="start" x="42" y="-943.3" font-family="Times,serif" font-size="14.00">_layout</text>
</g>
<!-- Api::V1::BaseController -->
<g id="node23" class="node"><title>Api::V1::BaseController</title>
<path fill="none" stroke="black" d="M46,-799.5C46,-799.5 172,-799.5 172,-799.5 178,-799.5 184,-805.5 184,-811.5 184,-811.5 184,-896.5 184,-896.5 184,-902.5 178,-908.5 172,-908.5 172,-908.5 46,-908.5 46,-908.5 40,-908.5 34,-902.5 34,-896.5 34,-896.5 34,-811.5 34,-811.5 34,-805.5 40,-799.5 46,-799.5"/>
<text text-anchor="middle" x="109" y="-893.3" font-family="Times,serif" font-size="14.00">Api::V1::BaseController</text>
<polyline fill="none" stroke="black" points="34,-885.5 184,-885.5 "/>
<polyline fill="none" stroke="black" points="34,-861.5 184,-861.5 "/>
<polyline fill="none" stroke="black" points="34,-837.5 184,-837.5 "/>
<text text-anchor="start" x="42" y="-822.3" font-family="Times,serif" font-size="14.00">_layout</text>
<text text-anchor="start" x="42" y="-807.3" font-family="Times,serif" font-size="14.00">not_found</text>
</g>
<!-- Users::RegistrationsController -->
<g id="node24" class="node"><title>Users::RegistrationsController</title>
<path fill="none" stroke="black" d="M896,-85.5C896,-85.5 1054,-85.5 1054,-85.5 1060,-85.5 1066,-91.5 1066,-97.5 1066,-97.5 1066,-166.5 1066,-166.5 1066,-172.5 1060,-178.5 1054,-178.5 1054,-178.5 896,-178.5 896,-178.5 890,-178.5 884,-172.5 884,-166.5 884,-166.5 884,-97.5 884,-97.5 884,-91.5 890,-85.5 896,-85.5"/>
<text text-anchor="middle" x="975" y="-163.3" font-family="Times,serif" font-size="14.00">Users::RegistrationsController</text>
<polyline fill="none" stroke="black" points="884,-155.5 1066,-155.5 "/>
<text text-anchor="start" x="892" y="-140.3" font-family="Times,serif" font-size="14.00">update_resource</text>
<polyline fill="none" stroke="black" points="884,-132.5 1066,-132.5 "/>
<polyline fill="none" stroke="black" points="884,-108.5 1066,-108.5 "/>
<text text-anchor="start" x="892" y="-93.3" font-family="Times,serif" font-size="14.00">_layout</text>
</g>
<!-- Users::OmniauthCallbacksController -->
<g id="node25" class="node"><title>Users::OmniauthCallbacksController</title>
<path fill="none" stroke="black" d="M726,-238.5C726,-238.5 920,-238.5 920,-238.5 926,-238.5 932,-244.5 932,-250.5 932,-250.5 932,-334.5 932,-334.5 932,-340.5 926,-346.5 920,-346.5 920,-346.5 726,-346.5 726,-346.5 720,-346.5 714,-340.5 714,-334.5 714,-334.5 714,-250.5 714,-250.5 714,-244.5 720,-238.5 726,-238.5"/>
<text text-anchor="middle" x="823" y="-331.3" font-family="Times,serif" font-size="14.00">Users::OmniauthCallbacksController</text>
<polyline fill="none" stroke="black" points="714,-323.5 932,-323.5 "/>
<text text-anchor="start" x="722" y="-308.3" font-family="Times,serif" font-size="14.00">facebook</text>
<text text-anchor="start" x="722" y="-293.3" font-family="Times,serif" font-size="14.00">twitter</text>
<polyline fill="none" stroke="black" points="714,-285.5 932,-285.5 "/>
<polyline fill="none" stroke="black" points="714,-261.5 932,-261.5 "/>
<text text-anchor="start" x="722" y="-246.3" font-family="Times,serif" font-size="14.00">_layout</text>
</g>
<!-- UsersController -->
<g id="node26" class="node"><title>UsersController</title>
<path fill="none" stroke="black" d="M199,-561.5C199,-561.5 330,-561.5 330,-561.5 336,-561.5 342,-567.5 342,-573.5 342,-573.5 342,-702.5 342,-702.5 342,-708.5 336,-714.5 330,-714.5 330,-714.5 199,-714.5 199,-714.5 193,-714.5 187,-708.5 187,-702.5 187,-702.5 187,-573.5 187,-573.5 187,-567.5 193,-561.5 199,-561.5"/>
<text text-anchor="middle" x="264.5" y="-699.3" font-family="Times,serif" font-size="14.00">UsersController</text>
<polyline fill="none" stroke="black" points="187,-691.5 342,-691.5 "/>
<text text-anchor="start" x="195" y="-676.3" font-family="Times,serif" font-size="14.00">embedded</text>
<text text-anchor="start" x="195" y="-661.3" font-family="Times,serif" font-size="14.00">index</text>
<text text-anchor="start" x="195" y="-646.3" font-family="Times,serif" font-size="14.00">show</text>
<polyline fill="none" stroke="black" points="187,-638.5 342,-638.5 "/>
<polyline fill="none" stroke="black" points="187,-614.5 342,-614.5 "/>
<text text-anchor="start" x="195" y="-599.3" font-family="Times,serif" font-size="14.00">_layout</text>
<text text-anchor="start" x="195" y="-584.3" font-family="Times,serif" font-size="14.00">user_slide_with_paginate</text>
<text text-anchor="start" x="195" y="-569.3" font-family="Times,serif" font-size="14.00">username_to_id</text>
</g>
<!-- SearchController -->
<g id="node27" class="node"><title>SearchController</title>
<path fill="none" stroke="black" d="M998,-493.5C998,-493.5 1083,-493.5 1083,-493.5 1089,-493.5 1095,-499.5 1095,-505.5 1095,-505.5 1095,-574.5 1095,-574.5 1095,-580.5 1089,-586.5 1083,-586.5 1083,-586.5 998,-586.5 998,-586.5 992,-586.5 986,-580.5 986,-574.5 986,-574.5 986,-505.5 986,-505.5 986,-499.5 992,-493.5 998,-493.5"/>
<text text-anchor="middle" x="1040.5" y="-571.3" font-family="Times,serif" font-size="14.00">SearchController</text>
<polyline fill="none" stroke="black" points="986,-563.5 1095,-563.5 "/>
<text text-anchor="start" x="994" y="-548.3" font-family="Times,serif" font-size="14.00">index</text>
<polyline fill="none" stroke="black" points="986,-540.5 1095,-540.5 "/>
<polyline fill="none" stroke="black" points="986,-516.5 1095,-516.5 "/>
<text text-anchor="start" x="994" y="-501.3" font-family="Times,serif" font-size="14.00">_layout</text>
</g>
<!-- StatisticsController -->
<g id="node28" class="node"><title>StatisticsController</title>
<path fill="none" stroke="black" d="M46,-680.5C46,-680.5 143,-680.5 143,-680.5 149,-680.5 155,-686.5 155,-692.5 155,-692.5 155,-761.5 155,-761.5 155,-767.5 149,-773.5 143,-773.5 143,-773.5 46,-773.5 46,-773.5 40,-773.5 34,-767.5 34,-761.5 34,-761.5 34,-692.5 34,-692.5 34,-686.5 40,-680.5 46,-680.5"/>
<text text-anchor="middle" x="94.5" y="-758.3" font-family="Times,serif" font-size="14.00">StatisticsController</text>
<polyline fill="none" stroke="black" points="34,-750.5 155,-750.5 "/>
<text text-anchor="start" x="42" y="-735.3" font-family="Times,serif" font-size="14.00">index</text>
<polyline fill="none" stroke="black" points="34,-727.5 155,-727.5 "/>
<polyline fill="none" stroke="black" points="34,-703.5 155,-703.5 "/>
<text text-anchor="start" x="42" y="-688.3" font-family="Times,serif" font-size="14.00">_layout</text>
</g>
<!-- LatestController -->
<g id="node29" class="node"><title>LatestController</title>
<path fill="none" stroke="black" d="M998,-612.5C998,-612.5 1079,-612.5 1079,-612.5 1085,-612.5 1091,-618.5 1091,-624.5 1091,-624.5 1091,-693.5 1091,-693.5 1091,-699.5 1085,-705.5 1079,-705.5 1079,-705.5 998,-705.5 998,-705.5 992,-705.5 986,-699.5 986,-693.5 986,-693.5 986,-624.5 986,-624.5 986,-618.5 992,-612.5 998,-612.5"/>
<text text-anchor="middle" x="1038.5" y="-690.3" font-family="Times,serif" font-size="14.00">LatestController</text>
<polyline fill="none" stroke="black" points="986,-682.5 1091,-682.5 "/>
<text text-anchor="start" x="994" y="-667.3" font-family="Times,serif" font-size="14.00">index</text>
<polyline fill="none" stroke="black" points="986,-659.5 1091,-659.5 "/>
<polyline fill="none" stroke="black" points="986,-635.5 1091,-635.5 "/>
<text text-anchor="start" x="994" y="-620.3" font-family="Times,serif" font-size="14.00">_layout</text>
</g>
<!-- SlidePageCountController -->
<g id="node30" class="node"><title>SlidePageCountController</title>
<path fill="none" stroke="black" d="M46,-306.5C46,-306.5 181,-306.5 181,-306.5 187,-306.5 193,-312.5 193,-318.5 193,-318.5 193,-387.5 193,-387.5 193,-393.5 187,-399.5 181,-399.5 181,-399.5 46,-399.5 46,-399.5 40,-399.5 34,-393.5 34,-387.5 34,-387.5 34,-318.5 34,-318.5 34,-312.5 40,-306.5 46,-306.5"/>
<text text-anchor="middle" x="113.5" y="-384.3" font-family="Times,serif" font-size="14.00">SlidePageCountController</text>
<polyline fill="none" stroke="black" points="34,-376.5 193,-376.5 "/>
<text text-anchor="start" x="42" y="-361.3" font-family="Times,serif" font-size="14.00">show</text>
<polyline fill="none" stroke="black" points="34,-353.5 193,-353.5 "/>
<polyline fill="none" stroke="black" points="34,-329.5 193,-329.5 "/>
<text text-anchor="start" x="42" y="-314.3" font-family="Times,serif" font-size="14.00">_layout</text>
</g>
<!-- HtmlPlayerController -->
<g id="node31" class="node"><title>HtmlPlayerController</title>
<path fill="none" stroke="black" d="M29,-561.5C29,-561.5 140,-561.5 140,-561.5 146,-561.5 152,-567.5 152,-573.5 152,-573.5 152,-642.5 152,-642.5 152,-648.5 146,-654.5 140,-654.5 140,-654.5 29,-654.5 29,-654.5 23,-654.5 17,-648.5 17,-642.5 17,-642.5 17,-573.5 17,-573.5 17,-567.5 23,-561.5 29,-561.5"/>
<text text-anchor="middle" x="84.5" y="-639.3" font-family="Times,serif" font-size="14.00">HtmlPlayerController</text>
<polyline fill="none" stroke="black" points="17,-631.5 152,-631.5 "/>
<text text-anchor="start" x="25" y="-616.3" font-family="Times,serif" font-size="14.00">show</text>
<polyline fill="none" stroke="black" points="17,-608.5 152,-608.5 "/>
<polyline fill="none" stroke="black" points="17,-584.5 152,-584.5 "/>
<text text-anchor="start" x="25" y="-569.3" font-family="Times,serif" font-size="14.00">_layout</text>
</g>
<!-- PlayerController -->
<g id="node32" class="node"><title>PlayerController</title>
<path fill="none" stroke="black" d="M760,-901.5C760,-901.5 843,-901.5 843,-901.5 849,-901.5 855,-907.5 855,-913.5 855,-913.5 855,-997.5 855,-997.5 855,-1003.5 849,-1009.5 843,-1009.5 843,-1009.5 760,-1009.5 760,-1009.5 754,-1009.5 748,-1003.5 748,-997.5 748,-997.5 748,-913.5 748,-913.5 748,-907.5 754,-901.5 760,-901.5"/>
<text text-anchor="middle" x="801.5" y="-994.3" font-family="Times,serif" font-size="14.00">PlayerController</text>
<polyline fill="none" stroke="black" points="748,-986.5 855,-986.5 "/>
<text text-anchor="start" x="756" y="-971.3" font-family="Times,serif" font-size="14.00">show</text>
<polyline fill="none" stroke="black" points="748,-963.5 855,-963.5 "/>
<polyline fill="none" stroke="black" points="748,-939.5 855,-939.5 "/>
<text text-anchor="start" x="756" y="-924.3" font-family="Times,serif" font-size="14.00">_layout</text>
<text text-anchor="start" x="756" y="-909.3" font-family="Times,serif" font-size="14.00">slide_position</text>
</g>
<!-- CategoriesController -->
<g id="node33" class="node"><title>CategoriesController</title>
<path fill="none" stroke="black" d="M675,-0.5C675,-0.5 781,-0.5 781,-0.5 787,-0.5 793,-6.5 793,-12.5 793,-12.5 793,-81.5 793,-81.5 793,-87.5 787,-93.5 781,-93.5 781,-93.5 675,-93.5 675,-93.5 669,-93.5 663,-87.5 663,-81.5 663,-81.5 663,-12.5 663,-12.5 663,-6.5 669,-0.5 675,-0.5"/>
<text text-anchor="middle" x="728" y="-78.3" font-family="Times,serif" font-size="14.00">CategoriesController</text>
<polyline fill="none" stroke="black" points="663,-70.5 793,-70.5 "/>
<text text-anchor="start" x="671" y="-55.3" font-family="Times,serif" font-size="14.00">show</text>
<polyline fill="none" stroke="black" points="663,-47.5 793,-47.5 "/>
<polyline fill="none" stroke="black" points="663,-23.5 793,-23.5 "/>
<text text-anchor="start" x="671" y="-8.3" font-family="Times,serif" font-size="14.00">_layout</text>
</g>
</g>
</svg>
