<?xml version="1.0" encoding="UTF-8" standalone="no"?>
<!DOCTYPE svg PUBLIC "-//W3C//DTD SVG 1.1//EN"
 "http://www.w3.org/Graphics/SVG/1.1/DTD/svg11.dtd">
<!-- Generated by graphviz version 2.36.0 (20140111.2315)
 -->
<!-- Title: models_diagram Pages: 1 -->
<svg width="1485pt" height="248pt"
 viewBox="0.00 0.00 1485.00 248.00" xmlns="http://www.w3.org/2000/svg" xmlns:xlink="http://www.w3.org/1999/xlink">
<g id="graph0" class="graph" transform="scale(1 1) rotate(0) translate(4 244)">
<title>models_diagram</title>
<polygon fill="none" stroke="none" points="-4,4 -4,-244 1481,-244 1481,4 -4,4"/>
<!-- _diagram_info -->
<g id="node1" class="node"><title>_diagram_info</title>
<text text-anchor="start" x="7" y="-225.6" font-family="Times,serif" font-size="13.00">Models diagram</text>
<text text-anchor="start" x="7" y="-211.6" font-family="Times,serif" font-size="13.00">Date: Jun 01 2018 &#45; 17:25</text>
<text text-anchor="start" x="7" y="-197.6" font-family="Times,serif" font-size="13.00">Migration version: 20180424135528</text>
<text text-anchor="start" x="7" y="-183.6" font-family="Times,serif" font-size="13.00">Generated by RailRoady 1.5.3</text>
<text text-anchor="start" x="7" y="-169.6" font-family="Times,serif" font-size="13.00">http://railroady.prestonlee.com</text>
</g>
<!-- Tag -->
<g id="node2" class="node"><title>Tag</title>
<ellipse fill="none" stroke="black" cx="258" cy="-201" rx="27" ry="18"/>
<text text-anchor="middle" x="258" y="-197.3" font-family="Times,serif" font-size="14.00">Tag</text>
</g>
<!-- Comment -->
<g id="node3" class="node"><title>Comment</title>
<ellipse fill="none" stroke="black" cx="89" cy="-18" rx="46.2191" ry="18"/>
<text text-anchor="middle" x="89" y="-14.3" font-family="Times,serif" font-size="14.00">Comment</text>
</g>
<!-- Page -->
<g id="node4" class="node"><title>Page</title>
<ellipse fill="none" stroke="black" cx="403" cy="-201" rx="27.4223" ry="18"/>
<text text-anchor="middle" x="403" y="-197.3" font-family="Times,serif" font-size="14.00">Page</text>
</g>
<!-- Slide -->
<g id="node5" class="node"><title>Slide</title>
<ellipse fill="none" stroke="black" cx="330" cy="-106" rx="28.3955" ry="18"/>
<text text-anchor="middle" x="330" y="-102.3" font-family="Times,serif" font-size="14.00">Slide</text>
</g>
<!-- Slide&#45;&gt;Comment -->
<g id="edge1" class="edge"><title>Slide&#45;&gt;Comment</title>
<path fill="none" stroke="#e6a395" d="M298.201,-93.6526C255.403,-78.3804 179.15,-51.1697 131.478,-34.158"/>
<ellipse fill="none" stroke="#e6a395" cx="302.244" cy="-95.0952" rx="4.00001" ry="4.00001"/>
<polygon fill="#e6a395" stroke="#e6a395" points="131.47,-34.1554 123.564,-26.5562 126.761,-32.4749 122.052,-30.7945 122.052,-30.7945 122.052,-30.7945 126.761,-32.4749 120.54,-35.0327 131.47,-34.1554 131.47,-34.1554"/>
</g>
<!-- ActsAsTaggableOn::Tagging -->
<g id="node16" class="node"><title>ActsAsTaggableOn::Tagging</title>
<ellipse fill="none" stroke="black" cx="268" cy="-18" rx="114.085" ry="18"/>
<text text-anchor="middle" x="268" y="-14.3" font-family="Times,serif" font-size="14.00">ActsAsTaggableOn::Tagging</text>
</g>
<!-- Slide&#45;&gt;ActsAsTaggableOn::Tagging -->
<g id="edge2" class="edge"><title>Slide&#45;&gt;ActsAsTaggableOn::Tagging</title>
<path fill="none" stroke="#360f06" d="M296.419,-96.0493C283.315,-90.7355 269.629,-82.5077 262,-70 257.691,-62.936 257.295,-54.2906 258.541,-46.1389"/>
<ellipse fill="none" stroke="#360f06" cx="300.264" cy="-97.4673" rx="4.00001" ry="4.00001"/>
<polygon fill="#360f06" stroke="#360f06" points="258.579,-45.9777 265.212,-37.2456 259.703,-41.1057 260.827,-36.2337 260.827,-36.2337 260.827,-36.2337 259.703,-41.1057 256.442,-35.2218 258.579,-45.9777 258.579,-45.9777"/>
<text text-anchor="middle" x="285" y="-58.3" font-family="Times,serif" font-size="14.00">taggings</text>
</g>
<!-- Slide&#45;&gt;ActsAsTaggableOn::Tagging -->
<g id="edge4" class="edge"><title>Slide&#45;&gt;ActsAsTaggableOn::Tagging</title>
<path fill="none" stroke="#b275c4" d="M321.885,-80.2248C318.375,-71.4826 313.738,-61.8767 308,-54 305.161,-50.1031 301.815,-46.3389 298.286,-42.8156"/>
<ellipse fill="none" stroke="#b275c4" cx="323.38" cy="-84.1932" rx="4.00001" ry="4.00001"/>
<polygon fill="#b275c4" stroke="#b275c4" points="298.224,-42.7574 293.953,-32.6574 294.558,-39.3569 290.892,-35.9564 290.892,-35.9564 290.892,-35.9564 294.558,-39.3569 287.832,-39.2555 298.224,-42.7574 298.224,-42.7574"/>
<text text-anchor="middle" x="352" y="-58.3" font-family="Times,serif" font-size="14.00">tag_taggings</text>
</g>
<!-- ActsAsTaggableOn::Tag -->
<g id="node17" class="node"><title>ActsAsTaggableOn::Tag</title>
<ellipse fill="none" stroke="black" cx="499" cy="-18" rx="98.1881" ry="18"/>
<text text-anchor="middle" x="499" y="-14.3" font-family="Times,serif" font-size="14.00">ActsAsTaggableOn::Tag</text>
</g>
<!-- Slide&#45;&gt;ActsAsTaggableOn::Tag -->
<g id="edge3" class="edge"><title>Slide&#45;&gt;ActsAsTaggableOn::Tag</title>
<path fill="none" stroke="#ebb236" d="M359.501,-88.3992C377.902,-78.1938 402.158,-65.0093 424,-54 433.824,-49.0485 444.48,-43.9281 454.592,-39.1828"/>
<polygon fill="#ebb236" stroke="#ebb236" points="359.453,-88.4261 348.527,-89.3603 355.085,-90.859 350.716,-93.2918 350.716,-93.2918 350.716,-93.2918 355.085,-90.859 352.906,-97.2232 359.453,-88.4261 359.453,-88.4261"/>
<polygon fill="#ebb236" stroke="#ebb236" points="454.621,-39.1692 465.586,-39.0249 459.153,-37.0576 463.686,-34.9459 463.686,-34.9459 463.686,-34.9459 459.153,-37.0576 461.785,-30.8669 454.621,-39.1692 454.621,-39.1692"/>
<text text-anchor="middle" x="450.5" y="-58.3" font-family="Times,serif" font-size="14.00">base_tags</text>
</g>
<!-- Slide&#45;&gt;ActsAsTaggableOn::Tag -->
<g id="edge5" class="edge"><title>Slide&#45;&gt;ActsAsTaggableOn::Tag</title>
<path fill="none" stroke="#4d72c4" d="M368.502,-105.03C400.888,-103.092 446.638,-95.5027 477,-70 484.403,-63.7815 489.382,-54.6107 492.7,-45.7541"/>
<polygon fill="#4d72c4" stroke="#4d72c4" points="368.484,-105.031 358.293,-100.981 363.489,-105.254 358.494,-105.477 358.494,-105.477 358.494,-105.477 363.489,-105.254 358.694,-109.972 368.484,-105.031 368.484,-105.031"/>
<polygon fill="#4d72c4" stroke="#4d72c4" points="492.751,-45.5925 500.07,-37.4258 494.266,-40.8275 495.781,-36.0625 495.781,-36.0625 495.781,-36.0625 494.266,-40.8275 491.493,-34.6991 492.751,-45.5925 492.751,-45.5925"/>
<text text-anchor="middle" x="499" y="-58.3" font-family="Times,serif" font-size="14.00">tags</text>
</g>
<!-- FeaturedSlide -->
<g id="node6" class="node"><title>FeaturedSlide</title>
<ellipse fill="none" stroke="black" cx="509" cy="-201" rx="59.1941" ry="18"/>
<text text-anchor="middle" x="509" y="-197.3" font-family="Times,serif" font-size="14.00">FeaturedSlide</text>
</g>
<!-- SlideSearch -->
<g id="node7" class="node"><title>SlideSearch</title>
<polygon fill="none" stroke="black" points="667.25,-219 586.75,-219 586.75,-183 667.25,-183 667.25,-219"/>
<text text-anchor="middle" x="627" y="-197.3" font-family="Times,serif" font-size="14.00">SlideSearch</text>
</g>
<!-- CustomFile -->
<g id="node8" class="node"><title>CustomFile</title>
<ellipse fill="none" stroke="black" cx="737" cy="-201" rx="51.4931" ry="18"/>
<text text-anchor="middle" x="737" y="-197.3" font-family="Times,serif" font-size="14.00">CustomFile</text>
</g>
<!-- Category -->
<g id="node9" class="node"><title>Category</title>
<ellipse fill="none" stroke="black" cx="850" cy="-201" rx="42.3456" ry="18"/>
<text text-anchor="middle" x="850" y="-197.3" font-family="Times,serif" font-size="14.00">Category</text>
</g>
<!-- SlideIndex -->
<g id="node10" class="node"><title>SlideIndex</title>
<polygon fill="none" stroke="black" points="985.25,-219 910.75,-219 910.75,-183 985.25,-183 985.25,-219"/>
<text text-anchor="middle" x="948" y="-197.3" font-family="Times,serif" font-size="14.00">SlideIndex</text>
</g>
<!-- Dashboard -->
<g id="node11" class="node"><title>Dashboard</title>
<polygon fill="none" stroke="black" points="1078.25,-219 1003.75,-219 1003.75,-183 1078.25,-183 1078.25,-219"/>
<text text-anchor="middle" x="1041" y="-197.3" font-family="Times,serif" font-size="14.00">Dashboard</text>
</g>
<!-- User -->
<g id="node12" class="node"><title>User</title>
<ellipse fill="none" stroke="black" cx="330" cy="-201" rx="26.949" ry="18"/>
<text text-anchor="middle" x="330" y="-197.3" font-family="Times,serif" font-size="14.00">User</text>
</g>
<!-- User&#45;&gt;Slide -->
<g id="edge6" class="edge"><title>User&#45;&gt;Slide</title>
<path fill="none" stroke="#289566" d="M330,-174.562C330,-162.078 330,-147.025 330,-134.299"/>
<ellipse fill="none" stroke="#289566" cx="330" cy="-178.942" rx="4" ry="4"/>
<polygon fill="#289566" stroke="#289566" points="330,-134.264 334.5,-124.264 330,-129.264 330,-124.264 330,-124.264 330,-124.264 330,-129.264 325.5,-124.264 330,-134.264 330,-134.264"/>
</g>
<!-- Setting -->
<g id="node13" class="node"><title>Setting</title>
<ellipse fill="none" stroke="black" cx="1132" cy="-201" rx="35.6194" ry="18"/>
<text text-anchor="middle" x="1132" y="-197.3" font-family="Times,serif" font-size="14.00">Setting</text>
</g>
<!-- ApplicationRecord -->
<g id="node14" class="node"><title>ApplicationRecord</title>
<ellipse fill="none" stroke="black" cx="1263" cy="-201" rx="77.0154" ry="18"/>
<text text-anchor="middle" x="1263" y="-197.3" font-family="Times,serif" font-size="14.00">ApplicationRecord</text>
</g>
<!-- ApplicationSetting -->
<g id="node15" class="node"><title>ApplicationSetting</title>
<polygon fill="none" stroke="black" points="1477.25,-219 1358.75,-219 1358.75,-183 1477.25,-183 1477.25,-219"/>
<text text-anchor="middle" x="1418" y="-197.3" font-family="Times,serif" font-size="14.00">ApplicationSetting</text>
</g>
</g>
</svg>
