<?xml version="1.0" encoding="UTF-8" standalone="no"?>
<!DOCTYPE svg PUBLIC "-//W3C//DTD SVG 1.1//EN"
 "http://www.w3.org/Graphics/SVG/1.1/DTD/svg11.dtd">
<!-- Generated by graphviz version 2.36.0 (20140111.2315)
 -->
<!-- Title: models_diagram Pages: 1 -->
<svg width="1979pt" height="974pt"
 viewBox="0.00 0.00 1979.00 974.00" xmlns="http://www.w3.org/2000/svg" xmlns:xlink="http://www.w3.org/1999/xlink">
<g id="graph0" class="graph" transform="scale(1 1) rotate(0) translate(4 970)">
<title>models_diagram</title>
<polygon fill="none" stroke="none" points="-4,4 -4,-970 1975,-970 1975,4 -4,4"/>
<!-- _diagram_info -->
<g id="node1" class="node"><title>_diagram_info</title>
<text text-anchor="start" x="7" y="-764.6" font-family="Times,serif" font-size="13.00">Models diagram</text>
<text text-anchor="start" x="7" y="-750.6" font-family="Times,serif" font-size="13.00">Date: Jun 01 2018 &#45; 17:25</text>
<text text-anchor="start" x="7" y="-736.6" font-family="Times,serif" font-size="13.00">Migration version: 20180424135528</text>
<text text-anchor="start" x="7" y="-722.6" font-family="Times,serif" font-size="13.00">Generated by RailRoady 1.5.3</text>
<text text-anchor="start" x="7" y="-708.6" font-family="Times,serif" font-size="13.00">http://railroady.prestonlee.com</text>
</g>
<!-- Tag -->
<g id="node2" class="node"><title>Tag</title>
<path fill="none" stroke="black" d="M243.5,-702C243.5,-702 362.5,-702 362.5,-702 368.5,-702 374.5,-708 374.5,-714 374.5,-714 374.5,-766 374.5,-766 374.5,-772 368.5,-778 362.5,-778 362.5,-778 243.5,-778 243.5,-778 237.5,-778 231.5,-772 231.5,-766 231.5,-766 231.5,-714 231.5,-714 231.5,-708 237.5,-702 243.5,-702"/>
<text text-anchor="middle" x="303" y="-762.8" font-family="Times,serif" font-size="14.00">Tag</text>
<polyline fill="none" stroke="black" points="231.5,-755 374.5,-755 "/>
<text text-anchor="start" x="239.5" y="-739.8" font-family="Times,serif" font-size="14.00">id :int(11)</text>
<text text-anchor="start" x="239.5" y="-724.8" font-family="Times,serif" font-size="14.00">name :varchar(255)</text>
<text text-anchor="start" x="239.5" y="-709.8" font-family="Times,serif" font-size="14.00">taggings_count :int(11)</text>
</g>
<!-- Comment -->
<g id="node3" class="node"><title>Comment</title>
<path fill="none" stroke="black" d="M186.5,-0.5C186.5,-0.5 293.5,-0.5 293.5,-0.5 299.5,-0.5 305.5,-6.5 305.5,-12.5 305.5,-12.5 305.5,-109.5 305.5,-109.5 305.5,-115.5 299.5,-121.5 293.5,-121.5 293.5,-121.5 186.5,-121.5 186.5,-121.5 180.5,-121.5 174.5,-115.5 174.5,-109.5 174.5,-109.5 174.5,-12.5 174.5,-12.5 174.5,-6.5 180.5,-0.5 186.5,-0.5"/>
<text text-anchor="middle" x="240" y="-106.3" font-family="Times,serif" font-size="14.00">Comment</text>
<polyline fill="none" stroke="black" points="174.5,-98.5 305.5,-98.5 "/>
<text text-anchor="start" x="182.5" y="-83.3" font-family="Times,serif" font-size="14.00">id :int(11)</text>
<text text-anchor="start" x="182.5" y="-68.3" font-family="Times,serif" font-size="14.00">user_id :int(11)</text>
<text text-anchor="start" x="182.5" y="-53.3" font-family="Times,serif" font-size="14.00">slide_id :int(11)</text>
<text text-anchor="start" x="182.5" y="-38.3" font-family="Times,serif" font-size="14.00">comment :text</text>
<text text-anchor="start" x="182.5" y="-23.3" font-family="Times,serif" font-size="14.00">created_at :datetime</text>
<text text-anchor="start" x="182.5" y="-8.3" font-family="Times,serif" font-size="14.00">updated_at :datetime</text>
</g>
<!-- Page -->
<g id="node4" class="node"><title>Page</title>
<path fill="none" stroke="black" d="M637.5,-679.5C637.5,-679.5 744.5,-679.5 744.5,-679.5 750.5,-679.5 756.5,-685.5 756.5,-691.5 756.5,-691.5 756.5,-788.5 756.5,-788.5 756.5,-794.5 750.5,-800.5 744.5,-800.5 744.5,-800.5 637.5,-800.5 637.5,-800.5 631.5,-800.5 625.5,-794.5 625.5,-788.5 625.5,-788.5 625.5,-691.5 625.5,-691.5 625.5,-685.5 631.5,-679.5 637.5,-679.5"/>
<text text-anchor="middle" x="691" y="-785.3" font-family="Times,serif" font-size="14.00">Page</text>
<polyline fill="none" stroke="black" points="625.5,-777.5 756.5,-777.5 "/>
<text text-anchor="start" x="633.5" y="-762.3" font-family="Times,serif" font-size="14.00">id :bigint(20)</text>
<text text-anchor="start" x="633.5" y="-747.3" font-family="Times,serif" font-size="14.00">path :varchar(30)</text>
<text text-anchor="start" x="633.5" y="-732.3" font-family="Times,serif" font-size="14.00">title :varchar(255)</text>
<text text-anchor="start" x="633.5" y="-717.3" font-family="Times,serif" font-size="14.00">content :longtext</text>
<text text-anchor="start" x="633.5" y="-702.3" font-family="Times,serif" font-size="14.00">created_at :datetime</text>
<text text-anchor="start" x="633.5" y="-687.3" font-family="Times,serif" font-size="14.00">updated_at :datetime</text>
</g>
<!-- Slide -->
<g id="node5" class="node"><title>Slide</title>
<path fill="none" stroke="black" d="M434.5,-174.5C434.5,-174.5 565.5,-174.5 565.5,-174.5 571.5,-174.5 577.5,-180.5 577.5,-186.5 577.5,-186.5 577.5,-463.5 577.5,-463.5 577.5,-469.5 571.5,-475.5 565.5,-475.5 565.5,-475.5 434.5,-475.5 434.5,-475.5 428.5,-475.5 422.5,-469.5 422.5,-463.5 422.5,-463.5 422.5,-186.5 422.5,-186.5 422.5,-180.5 428.5,-174.5 434.5,-174.5"/>
<text text-anchor="middle" x="500" y="-460.3" font-family="Times,serif" font-size="14.00">Slide</text>
<polyline fill="none" stroke="black" points="422.5,-452.5 577.5,-452.5 "/>
<text text-anchor="start" x="430.5" y="-437.3" font-family="Times,serif" font-size="14.00">id :int(11)</text>
<text text-anchor="start" x="430.5" y="-422.3" font-family="Times,serif" font-size="14.00">user_id :int(11)</text>
<text text-anchor="start" x="430.5" y="-407.3" font-family="Times,serif" font-size="14.00">name :varchar(255)</text>
<text text-anchor="start" x="430.5" y="-392.3" font-family="Times,serif" font-size="14.00">description :text</text>
<text text-anchor="start" x="430.5" y="-377.3" font-family="Times,serif" font-size="14.00">downloadable :tinyint(1)</text>
<text text-anchor="start" x="430.5" y="-362.3" font-family="Times,serif" font-size="14.00">category_id :int(11)</text>
<text text-anchor="start" x="430.5" y="-347.3" font-family="Times,serif" font-size="14.00">created_at :datetime</text>
<text text-anchor="start" x="430.5" y="-332.3" font-family="Times,serif" font-size="14.00">updated_at :datetime</text>
<text text-anchor="start" x="430.5" y="-317.3" font-family="Times,serif" font-size="14.00">object_key :varchar(255)</text>
<text text-anchor="start" x="430.5" y="-302.3" font-family="Times,serif" font-size="14.00">extension :varchar(10)</text>
<text text-anchor="start" x="430.5" y="-287.3" font-family="Times,serif" font-size="14.00">convert_status :int(11)</text>
<text text-anchor="start" x="430.5" y="-272.3" font-family="Times,serif" font-size="14.00">total_view :int(11)</text>
<text text-anchor="start" x="430.5" y="-257.3" font-family="Times,serif" font-size="14.00">page_view :int(11)</text>
<text text-anchor="start" x="430.5" y="-242.3" font-family="Times,serif" font-size="14.00">download_count :int(11)</text>
<text text-anchor="start" x="430.5" y="-227.3" font-family="Times,serif" font-size="14.00">embedded_view :int(11)</text>
<text text-anchor="start" x="430.5" y="-212.3" font-family="Times,serif" font-size="14.00">num_of_pages :int(11)</text>
<text text-anchor="start" x="430.5" y="-197.3" font-family="Times,serif" font-size="14.00">comments_count :int(11)</text>
<text text-anchor="start" x="430.5" y="-182.3" font-family="Times,serif" font-size="14.00">private :tinyint(1)</text>
</g>
<!-- Slide&#45;&gt;Comment -->
<g id="edge1" class="edge"><title>Slide&#45;&gt;Comment</title>
<path fill="none" stroke="#229528" d="M416.268,-239.624C380.755,-203.838 339.945,-162.713 306.541,-129.053"/>
<ellipse fill="none" stroke="#229528" cx="419.526" cy="-242.907" rx="4.00002" ry="4.00002"/>
<polygon fill="#229528" stroke="#229528" points="306.138,-128.647 302.289,-118.379 302.617,-125.098 299.095,-121.549 299.095,-121.549 299.095,-121.549 302.617,-125.098 295.9,-124.719 306.138,-128.647 306.138,-128.647"/>
</g>
<!-- ActsAsTaggableOn::Tagging -->
<g id="node16" class="node"><title>ActsAsTaggableOn::Tagging</title>
<ellipse fill="none" stroke="black" cx="438" cy="-61" rx="114.085" ry="18"/>
<text text-anchor="middle" x="438" y="-57.3" font-family="Times,serif" font-size="14.00">ActsAsTaggableOn::Tagging</text>
</g>
<!-- Slide&#45;&gt;ActsAsTaggableOn::Tagging -->
<g id="edge2" class="edge"><title>Slide&#45;&gt;ActsAsTaggableOn::Tagging</title>
<path fill="none" stroke="#3fed0c" d="M434.177,-166.21C433.388,-162.794 432.66,-159.388 432,-156 427.669,-133.757 429.785,-108.052 432.637,-89.1494"/>
<ellipse fill="none" stroke="#3fed0c" cx="435.177" cy="-170.31" rx="4.00001" ry="4.00001"/>
<polygon fill="#3fed0c" stroke="#3fed0c" points="432.66,-89.0121 438.748,-79.8914 433.485,-84.0806 434.31,-79.1491 434.31,-79.1491 434.31,-79.1491 433.485,-84.0806 429.871,-78.4068 432.66,-89.0121 432.66,-89.0121"/>
<text text-anchor="middle" x="455" y="-144.3" font-family="Times,serif" font-size="14.00">taggings</text>
</g>
<!-- Slide&#45;&gt;ActsAsTaggableOn::Tagging -->
<g id="edge4" class="edge"><title>Slide&#45;&gt;ActsAsTaggableOn::Tagging</title>
<path fill="none" stroke="#803484" d="M484.959,-166.471C482.924,-157.447 480.617,-148.567 478,-140 472.457,-121.852 462.825,-102.879 454.401,-88.189"/>
<ellipse fill="none" stroke="#803484" cx="485.834" cy="-170.524" rx="4.00001" ry="4.00001"/>
<polygon fill="#803484" stroke="#803484" points="454.181,-87.8165 452.97,-76.9176 451.638,-83.5113 449.095,-79.2062 449.095,-79.2062 449.095,-79.2062 451.638,-83.5113 445.221,-81.4948 454.181,-87.8165 454.181,-87.8165"/>
<text text-anchor="middle" x="517" y="-144.3" font-family="Times,serif" font-size="14.00">tag_taggings</text>
</g>
<!-- ActsAsTaggableOn::Tag -->
<g id="node17" class="node"><title>ActsAsTaggableOn::Tag</title>
<ellipse fill="none" stroke="black" cx="669" cy="-61" rx="98.1881" ry="18"/>
<text text-anchor="middle" x="669" y="-57.3" font-family="Times,serif" font-size="14.00">ActsAsTaggableOn::Tag</text>
</g>
<!-- Slide&#45;&gt;ActsAsTaggableOn::Tag -->
<g id="edge3" class="edge"><title>Slide&#45;&gt;ActsAsTaggableOn::Tag</title>
<path fill="none" stroke="#52d73b" d="M577.151,-165.352C582.595,-156.619 588.224,-148.107 594,-140 608.017,-120.326 626.875,-100.737 642.174,-86.1118"/>
<polygon fill="#52d73b" stroke="#52d73b" points="576.986,-165.621 567.929,-171.804 574.377,-169.886 571.768,-174.152 571.768,-174.152 571.768,-174.152 574.377,-169.886 575.607,-176.5 576.986,-165.621 576.986,-165.621"/>
<polygon fill="#52d73b" stroke="#52d73b" points="642.518,-85.7889 652.887,-82.2213 646.162,-82.3653 649.806,-78.9417 649.806,-78.9417 649.806,-78.9417 646.162,-82.3653 646.725,-75.662 642.518,-85.7889 642.518,-85.7889"/>
<text text-anchor="middle" x="620.5" y="-144.3" font-family="Times,serif" font-size="14.00">base_tags</text>
</g>
<!-- Slide&#45;&gt;ActsAsTaggableOn::Tag -->
<g id="edge5" class="edge"><title>Slide&#45;&gt;ActsAsTaggableOn::Tag</title>
<path fill="none" stroke="#ead6b6" d="M584.393,-243.706C607.651,-217.681 630.888,-187.379 647,-156 657.787,-134.991 663.365,-108.632 666.199,-89.1762"/>
<polygon fill="#ead6b6" stroke="#ead6b6" points="584.234,-243.881 574.18,-248.259 580.873,-247.583 577.511,-251.284 577.511,-251.284 577.511,-251.284 580.873,-247.583 580.843,-254.309 584.234,-243.881 584.234,-243.881"/>
<polygon fill="#ead6b6" stroke="#ead6b6" points="666.213,-89.0717 671.97,-79.7385 666.86,-84.1138 667.508,-79.1559 667.508,-79.1559 667.508,-79.1559 666.86,-84.1138 663.045,-78.5733 666.213,-89.0717 666.213,-89.0717"/>
<text text-anchor="middle" x="664" y="-144.3" font-family="Times,serif" font-size="14.00">tags</text>
</g>
<!-- FeaturedSlide -->
<g id="node6" class="node"><title>FeaturedSlide</title>
<path fill="none" stroke="black" d="M786.5,-694.5C786.5,-694.5 893.5,-694.5 893.5,-694.5 899.5,-694.5 905.5,-700.5 905.5,-706.5 905.5,-706.5 905.5,-773.5 905.5,-773.5 905.5,-779.5 899.5,-785.5 893.5,-785.5 893.5,-785.5 786.5,-785.5 786.5,-785.5 780.5,-785.5 774.5,-779.5 774.5,-773.5 774.5,-773.5 774.5,-706.5 774.5,-706.5 774.5,-700.5 780.5,-694.5 786.5,-694.5"/>
<text text-anchor="middle" x="840" y="-770.3" font-family="Times,serif" font-size="14.00">FeaturedSlide</text>
<polyline fill="none" stroke="black" points="774.5,-762.5 905.5,-762.5 "/>
<text text-anchor="start" x="782.5" y="-747.3" font-family="Times,serif" font-size="14.00">id :int(11)</text>
<text text-anchor="start" x="782.5" y="-732.3" font-family="Times,serif" font-size="14.00">slide_id :int(11)</text>
<text text-anchor="start" x="782.5" y="-717.3" font-family="Times,serif" font-size="14.00">created_at :datetime</text>
<text text-anchor="start" x="782.5" y="-702.3" font-family="Times,serif" font-size="14.00">updated_at :datetime</text>
</g>
<!-- SlideSearch -->
<g id="node7" class="node"><title>SlideSearch</title>
<polygon fill="none" stroke="black" points="923.5,-717 923.5,-763 1004.5,-763 1004.5,-717 923.5,-717"/>
<text text-anchor="middle" x="964" y="-747.8" font-family="Times,serif" font-size="14.00">SlideSearch</text>
<polyline fill="none" stroke="black" points="923.5,-740 1004.5,-740 "/>
<text text-anchor="middle" x="964" y="-724.8" font-family="Times,serif" font-size="14.00"> </text>
</g>
<!-- CustomFile -->
<g id="node8" class="node"><title>CustomFile</title>
<path fill="none" stroke="black" d="M1035,-702C1035,-702 1165,-702 1165,-702 1171,-702 1177,-708 1177,-714 1177,-714 1177,-766 1177,-766 1177,-772 1171,-778 1165,-778 1165,-778 1035,-778 1035,-778 1029,-778 1023,-772 1023,-766 1023,-766 1023,-714 1023,-714 1023,-708 1029,-702 1035,-702"/>
<text text-anchor="middle" x="1100" y="-762.8" font-family="Times,serif" font-size="14.00">CustomFile</text>
<polyline fill="none" stroke="black" points="1023,-755 1177,-755 "/>
<text text-anchor="start" x="1031" y="-739.8" font-family="Times,serif" font-size="14.00">id :bigint(20)</text>
<text text-anchor="start" x="1031" y="-724.8" font-family="Times,serif" font-size="14.00">path :varchar(255)</text>
<text text-anchor="start" x="1031" y="-709.8" font-family="Times,serif" font-size="14.00">description :varchar(255)</text>
</g>
<!-- Category -->
<g id="node9" class="node"><title>Category</title>
<path fill="none" stroke="black" d="M1207.5,-694.5C1207.5,-694.5 1314.5,-694.5 1314.5,-694.5 1320.5,-694.5 1326.5,-700.5 1326.5,-706.5 1326.5,-706.5 1326.5,-773.5 1326.5,-773.5 1326.5,-779.5 1320.5,-785.5 1314.5,-785.5 1314.5,-785.5 1207.5,-785.5 1207.5,-785.5 1201.5,-785.5 1195.5,-779.5 1195.5,-773.5 1195.5,-773.5 1195.5,-706.5 1195.5,-706.5 1195.5,-700.5 1201.5,-694.5 1207.5,-694.5"/>
<text text-anchor="middle" x="1261" y="-770.3" font-family="Times,serif" font-size="14.00">Category</text>
<polyline fill="none" stroke="black" points="1195.5,-762.5 1326.5,-762.5 "/>
<text text-anchor="start" x="1203.5" y="-747.3" font-family="Times,serif" font-size="14.00">id :int(11)</text>
<text text-anchor="start" x="1203.5" y="-732.3" font-family="Times,serif" font-size="14.00">name :varchar(255)</text>
<text text-anchor="start" x="1203.5" y="-717.3" font-family="Times,serif" font-size="14.00">created_at :datetime</text>
<text text-anchor="start" x="1203.5" y="-702.3" font-family="Times,serif" font-size="14.00">updated_at :datetime</text>
</g>
<!-- SlideIndex -->
<g id="node10" class="node"><title>SlideIndex</title>
<polygon fill="none" stroke="black" points="1344.5,-717 1344.5,-763 1419.5,-763 1419.5,-717 1344.5,-717"/>
<text text-anchor="middle" x="1382" y="-747.8" font-family="Times,serif" font-size="14.00">SlideIndex</text>
<polyline fill="none" stroke="black" points="1344.5,-740 1419.5,-740 "/>
<text text-anchor="middle" x="1382" y="-724.8" font-family="Times,serif" font-size="14.00"> </text>
</g>
<!-- Dashboard -->
<g id="node11" class="node"><title>Dashboard</title>
<polygon fill="none" stroke="black" points="1437.5,-717 1437.5,-763 1512.5,-763 1512.5,-717 1437.5,-717"/>
<text text-anchor="middle" x="1475" y="-747.8" font-family="Times,serif" font-size="14.00">Dashboard</text>
<polyline fill="none" stroke="black" points="1437.5,-740 1512.5,-740 "/>
<text text-anchor="middle" x="1475" y="-724.8" font-family="Times,serif" font-size="14.00"> </text>
</g>
<!-- User -->
<g id="node12" class="node"><title>User</title>
<path fill="none" stroke="black" d="M405,-514.5C405,-514.5 595,-514.5 595,-514.5 601,-514.5 607,-520.5 607,-526.5 607,-526.5 607,-953.5 607,-953.5 607,-959.5 601,-965.5 595,-965.5 595,-965.5 405,-965.5 405,-965.5 399,-965.5 393,-959.5 393,-953.5 393,-953.5 393,-526.5 393,-526.5 393,-520.5 399,-514.5 405,-514.5"/>
<text text-anchor="middle" x="500" y="-950.3" font-family="Times,serif" font-size="14.00">User</text>
<polyline fill="none" stroke="black" points="393,-942.5 607,-942.5 "/>
<text text-anchor="start" x="401" y="-927.3" font-family="Times,serif" font-size="14.00">id :int(11)</text>
<text text-anchor="start" x="401" y="-912.3" font-family="Times,serif" font-size="14.00">email :varchar(32)</text>
<text text-anchor="start" x="401" y="-897.3" font-family="Times,serif" font-size="14.00">display_name :varchar(128)</text>
<text text-anchor="start" x="401" y="-882.3" font-family="Times,serif" font-size="14.00">password :varchar(255)</text>
<text text-anchor="start" x="401" y="-867.3" font-family="Times,serif" font-size="14.00">admin :tinyint(1)</text>
<text text-anchor="start" x="401" y="-852.3" font-family="Times,serif" font-size="14.00">disabled :tinyint(1)</text>
<text text-anchor="start" x="401" y="-837.3" font-family="Times,serif" font-size="14.00">created_at :datetime</text>
<text text-anchor="start" x="401" y="-822.3" font-family="Times,serif" font-size="14.00">updated_at :datetime</text>
<text text-anchor="start" x="401" y="-807.3" font-family="Times,serif" font-size="14.00">biography :text</text>
<text text-anchor="start" x="401" y="-792.3" font-family="Times,serif" font-size="14.00">slides_count :int(11)</text>
<text text-anchor="start" x="401" y="-777.3" font-family="Times,serif" font-size="14.00">encrypted_password :varchar(255)</text>
<text text-anchor="start" x="401" y="-762.3" font-family="Times,serif" font-size="14.00">reset_password_token :varchar(255)</text>
<text text-anchor="start" x="401" y="-747.3" font-family="Times,serif" font-size="14.00">reset_password_sent_at :datetime</text>
<text text-anchor="start" x="401" y="-732.3" font-family="Times,serif" font-size="14.00">remember_created_at :datetime</text>
<text text-anchor="start" x="401" y="-717.3" font-family="Times,serif" font-size="14.00">sign_in_count :int(11)</text>
<text text-anchor="start" x="401" y="-702.3" font-family="Times,serif" font-size="14.00">current_sign_in_at :datetime</text>
<text text-anchor="start" x="401" y="-687.3" font-family="Times,serif" font-size="14.00">last_sign_in_at :datetime</text>
<text text-anchor="start" x="401" y="-672.3" font-family="Times,serif" font-size="14.00">current_sign_in_ip :varchar(255)</text>
<text text-anchor="start" x="401" y="-657.3" font-family="Times,serif" font-size="14.00">last_sign_in_ip :varchar(255)</text>
<text text-anchor="start" x="401" y="-642.3" font-family="Times,serif" font-size="14.00">avatar_file_name :varchar(255)</text>
<text text-anchor="start" x="401" y="-627.3" font-family="Times,serif" font-size="14.00">avatar_content_type :varchar(255)</text>
<text text-anchor="start" x="401" y="-612.3" font-family="Times,serif" font-size="14.00">avatar_file_size :int(11)</text>
<text text-anchor="start" x="401" y="-597.3" font-family="Times,serif" font-size="14.00">avatar_updated_at :datetime</text>
<text text-anchor="start" x="401" y="-582.3" font-family="Times,serif" font-size="14.00">username :varchar(255)</text>
<text text-anchor="start" x="401" y="-567.3" font-family="Times,serif" font-size="14.00">provider :varchar(255)</text>
<text text-anchor="start" x="401" y="-552.3" font-family="Times,serif" font-size="14.00">uid :varchar(255)</text>
<text text-anchor="start" x="401" y="-537.3" font-family="Times,serif" font-size="14.00">token :varchar(255)</text>
<text text-anchor="start" x="401" y="-522.3" font-family="Times,serif" font-size="14.00">twitter_account :varchar(15)</text>
</g>
<!-- User&#45;&gt;Slide -->
<g id="edge6" class="edge"><title>User&#45;&gt;Slide</title>
<path fill="none" stroke="#1da5ba" d="M500,-506.125C500,-499.392 500,-492.696 500,-486.068"/>
<ellipse fill="none" stroke="#1da5ba" cx="500" cy="-510.371" rx="4" ry="4"/>
<polygon fill="#1da5ba" stroke="#1da5ba" points="500,-485.712 504.5,-475.711 500,-480.712 500,-475.712 500,-475.712 500,-475.712 500,-480.712 495.5,-475.712 500,-485.712 500,-485.712"/>
</g>
<!-- Setting -->
<g id="node13" class="node"><title>Setting</title>
<path fill="none" stroke="black" d="M1542.5,-687C1542.5,-687 1649.5,-687 1649.5,-687 1655.5,-687 1661.5,-693 1661.5,-699 1661.5,-699 1661.5,-781 1661.5,-781 1661.5,-787 1655.5,-793 1649.5,-793 1649.5,-793 1542.5,-793 1542.5,-793 1536.5,-793 1530.5,-787 1530.5,-781 1530.5,-781 1530.5,-699 1530.5,-699 1530.5,-693 1536.5,-687 1542.5,-687"/>
<text text-anchor="middle" x="1596" y="-777.8" font-family="Times,serif" font-size="14.00">Setting</text>
<polyline fill="none" stroke="black" points="1530.5,-770 1661.5,-770 "/>
<text text-anchor="start" x="1538.5" y="-754.8" font-family="Times,serif" font-size="14.00">id :int(11)</text>
<text text-anchor="start" x="1538.5" y="-739.8" font-family="Times,serif" font-size="14.00">var :varchar(255)</text>
<text text-anchor="start" x="1538.5" y="-724.8" font-family="Times,serif" font-size="14.00">value :longtext</text>
<text text-anchor="start" x="1538.5" y="-709.8" font-family="Times,serif" font-size="14.00">created_at :datetime</text>
<text text-anchor="start" x="1538.5" y="-694.8" font-family="Times,serif" font-size="14.00">updated_at :datetime</text>
</g>
<!-- ApplicationRecord -->
<g id="node14" class="node"><title>ApplicationRecord</title>
<ellipse fill="none" stroke="black" cx="1757" cy="-740" rx="77.0154" ry="18"/>
<text text-anchor="middle" x="1757" y="-736.3" font-family="Times,serif" font-size="14.00">ApplicationRecord</text>
</g>
<!-- ApplicationSetting -->
<g id="node15" class="node"><title>ApplicationSetting</title>
<polygon fill="none" stroke="black" points="1852.5,-717 1852.5,-763 1971.5,-763 1971.5,-717 1852.5,-717"/>
<text text-anchor="middle" x="1912" y="-747.8" font-family="Times,serif" font-size="14.00">ApplicationSetting</text>
<polyline fill="none" stroke="black" points="1852.5,-740 1971.5,-740 "/>
<text text-anchor="middle" x="1912" y="-724.8" font-family="Times,serif" font-size="14.00"> </text>
</g>
</g>
</svg>
